<svg width="47" height="51" viewBox="0 0 47 51" fill="none" xmlns="http://www.w3.org/2000/svg">
<path d="M23.5 12.75C23.5 12.75 20.3125 8.5 12.875 8.5C5.4375 8.5 2.25 12.75 2.25 12.75L2.25 42.5C2.25 42.5 5.4375 40.375 12.875 40.375C20.3125 40.375 23.5 42.5 23.5 42.5M23.5 12.75L23.5 42.5M23.5 12.75C23.5 12.75 26.6875 8.5 34.125 8.5C41.5625 8.5 44.75 12.75 44.75 12.75V42.5C44.75 42.5 41.5625 40.375 34.125 40.375C26.6875 40.375 23.5 42.5 23.5 42.5" stroke="white" stroke-width="4" stroke-linecap="round" stroke-linejoin="round"/>
</svg>