<svg width="51" height="51" viewBox="0 0 51 51" fill="none" xmlns="http://www.w3.org/2000/svg">
<defs>
<linearGradient id="paint0_linear_106_1893" x1="39.1354" y1="45.6875" x2="5.02584" y2="43.9125" gradientUnits="userSpaceOnUse">
<stop stop-color="#D38545"/>
<stop offset="1" stop-color="#FFBF8A"/>
</linearGradient>
</defs>
<path d="M32.5029 40.5593L36.8587 41.2853C36.9674 41.3034 37.0773 41.3125 37.1875 41.3125H40.375C41.4796 41.3125 42.375 40.4171 42.375 39.3125V34.5771L46.0797 33.8362C46.706 33.7109 47.2347 33.2941 47.5028 32.7145C47.7708 32.1348 47.746 31.462 47.4358 30.9037L42.3677 21.7811C42.0863 11.533 33.6912 3.3125 23.375 3.3125C12.8811 3.3125 4.375 11.8186 4.375 22.3125C4.375 27.5088 6.46242 32.2203 9.84162 35.6486L11.8486 46.0659C12.03 47.0072 12.8538 47.6875 13.8125 47.6875H29.75C30.7453 47.6875 31.5891 46.9556 31.7299 45.9703L32.5029 40.5593Z" stroke="url(#paint0_linear_106_1893)" stroke-width="4" stroke-linecap="round" stroke-linejoin="round"/>
</svg>