<svg width="44" height="51" viewBox="0 0 44 51" fill="none" xmlns="http://www.w3.org/2000/svg">
<path d="M11.7885 35.0625V34.0625H10.7885H5.39426H4.39426V35.0625V44.625L4.39426 45.625H5.39426H10.7885H11.7885V44.625V35.0625ZM25.2741 22.3125V21.3125H24.2741H18.8798H17.8798V22.3125V44.625V45.625H18.8798H24.2741H25.2741V44.625L25.2741 22.3125ZM38.7596 6.375V5.375H37.7596H32.3654H31.3654V6.375L31.3654 44.625V45.625H32.3654H37.7596H38.7596V44.625V6.375ZM31.2216 4.76704C31.5578 4.36977 31.9744 4.1875 32.3654 4.1875H37.7596C38.1507 4.1875 38.5672 4.36977 38.9034 4.76704C39.2438 5.16935 39.4568 5.74586 39.4568 6.375V44.625C39.4568 45.2541 39.2438 45.8306 38.9034 46.233C38.5672 46.6302 38.1507 46.8125 37.7596 46.8125H32.3654C31.9744 46.8125 31.5578 46.6302 31.2216 46.233C30.8812 45.8306 30.6683 45.2541 30.6683 44.625L30.6683 6.375C30.6683 5.74586 30.8812 5.16935 31.2216 4.76704ZM17.1827 22.3125C17.1827 21.6834 17.3957 21.1069 17.7361 20.7045C18.0722 20.3073 18.4888 20.125 18.8798 20.125H24.2741C24.6651 20.125 25.0817 20.3073 25.4178 20.7045C25.7582 21.1069 25.9712 21.6834 25.9712 22.3125L25.9712 44.625C25.9712 45.2541 25.7582 45.8306 25.4178 46.233C25.0817 46.6302 24.6651 46.8125 24.2741 46.8125H18.8798C18.4888 46.8125 18.0722 46.6302 17.7361 46.233C17.3957 45.8306 17.1827 45.2541 17.1827 44.625V22.3125ZM3.69714 35.0625C3.69714 34.4334 3.91008 33.8568 4.2505 33.4545C4.58665 33.0573 5.0032 32.875 5.39426 32.875H10.7885C11.1795 32.875 11.5961 33.0573 11.9323 33.4545C12.2727 33.8568 12.4856 34.4334 12.4856 35.0625V44.625C12.4856 45.2541 12.2727 45.8306 11.9323 46.233C11.5961 46.6302 11.1795 46.8125 10.7885 46.8125H5.39426C5.0032 46.8125 4.58665 46.6302 4.2505 46.233C3.91008 45.8306 3.69714 45.2541 3.69714 44.625L3.69714 35.0625Z" stroke="white" stroke-width="2"/>
</svg>