<svg width="138" height="146" viewBox="0 0 138 146" fill="none" xmlns="http://www.w3.org/2000/svg">
<g opacity="0.4">
<path d="M55.1906 43.5274C55.1906 42.592 55.3863 41.3692 55.0953 40.4764C54.6504 39.112 53.2047 38.1568 52.3261 37.1204C50.4112 34.8611 48.8838 32.272 48.6022 29.1878C48.2682 25.5286 50.6707 22.7134 52.899 20.3399L62.9248 9.66147L66.9352 5.39009C67.2752 5.02791 67.822 4.1697 68.3674 4.1697C68.8238 4.1697 69.232 4.78551 69.5132 5.085L72.3778 8.13597L80.9713 17.2889C81.9481 18.3294 83.3755 20.5833 84.6952 21.0518C85.4065 21.3044 86.5904 20.5697 87.2733 20.3399C86.8227 18.6818 85.279 17.7909 84.1223 16.6787C82.5528 15.1698 81.0516 13.4203 79.6345 11.7463C77.0541 8.69815 74.2457 5.85405 71.5184 2.9493C70.8407 2.22747 69.3838 0 68.3674 0C67.4797 0 66.3703 1.72024 65.7894 2.33911L59.4874 9.05128L52.0397 16.9838C50.5991 18.5183 48.8915 19.9873 47.8383 21.8654C45.5601 25.9285 45.5487 30.8192 47.5043 34.9847C48.2743 36.6252 49.3891 37.9585 50.6074 39.256C51.9042 40.6372 53.4198 42.9813 55.1906 43.5274V43.5274ZM78.3933 42.0019C81.7766 40.9588 80.7173 37.1585 80.9713 34.3745C81.2644 31.1658 82.5085 27.9457 84.9817 25.9334C87.9665 23.505 91.4667 24.0011 95.0075 24.0011L114.486 24.0011V42.9172L114.63 48.409L117.064 49.6294V27.9674C117.064 26.2088 117.306 24.5023 117.351 22.7807C117.364 22.2676 117.406 21.4592 116.969 21.1027C116.32 20.5732 114.419 20.9501 113.627 20.9501H104.174C100.523 20.9501 96.9073 20.9295 93.2888 21.2552C91.4269 21.4228 89.3865 20.8975 87.5597 21.3569C83.6061 22.3512 80.1372 25.9792 79.0616 30.1031C78.061 33.9397 78.3933 38.0411 78.3933 42.0019V42.0019ZM39.1493 62.7487C38.182 59.1897 34.8726 60.2719 32.2744 60.0028C29.9906 59.7663 27.7992 58.9465 25.9725 57.4604C22.1895 54.3825 22.2486 49.9629 22.2486 45.358V32.849C22.2486 30.6809 22.2647 28.5758 22.4873 26.4419C22.5457 25.8821 22.1976 25.1393 22.5828 24.6622C22.9735 24.1783 23.7255 24.3062 24.2538 24.3062H27.9777L40.0087 24.3062C41.4936 24.3062 43.7641 24.7682 45.1648 24.2554C46.0554 23.9293 46.4246 22.4334 46.5971 21.5603C41.0674 21.5603 35.461 21.2552 29.9828 21.2552C29.0381 21.2552 28.0983 21.5748 27.1183 21.5603C25.4066 21.535 23.7068 21.2552 21.9622 21.2552C21.4311 21.2552 20.4613 21.0577 20.0048 21.4078C19.308 21.9421 19.6706 24.0981 19.6706 24.9164L19.6706 35.9C19.6706 44.3646 17.4499 56.3041 25.9725 60.969C27.0796 61.5749 28.1747 62.0677 29.4099 62.342C32.5698 63.0431 35.9236 62.7487 39.1493 62.7487V62.7487ZM44.3055 60.0028C46.4461 63.9407 51.2064 62.7487 54.9042 62.7487C55.7515 62.7487 58.2285 63.1959 58.7713 62.3926C59.0998 61.9066 58.9145 60.8735 58.9145 60.3079V54.511C58.9145 47.2237 59.2875 39.7683 58.6281 32.5439C58.3631 29.6396 56.6238 26.2624 54.6177 24.3062C53.871 23.578 52.7678 22.358 51.7532 23.1367C51.2691 23.5082 50.7108 24.2029 51.0371 24.8656C51.4894 25.7841 52.8048 26.5701 53.4719 27.3572C54.7658 28.8839 55.5647 30.8558 55.9546 32.849C56.5942 36.1203 56.3499 39.6316 56.05 42.9172C55.952 43.9915 56.2413 44.9269 56.3364 45.9682C56.5455 48.258 56.3364 50.6835 56.3364 52.9855V57.562C56.3364 58.2295 56.4264 59.1122 55.9546 59.6467C55.3405 60.3427 53.7174 60.0028 52.899 60.0028H44.3055V60.0028ZM60.0603 45.9682C60.0603 46.9903 59.8383 48.3501 60.1557 49.3243C60.5278 50.4651 61.5633 51.0066 62.352 51.7651C63.6103 52.9751 64.5957 54.46 65.7894 55.7314C66.4098 56.3922 68.026 58.4587 68.9404 58.0196C69.7066 57.6517 70.3611 56.6589 70.9455 56.0365L74.9558 51.7651L83.8359 42.3071C85.7391 40.28 87.7915 38.3817 89.1831 35.9C90.5053 33.5419 90.9972 30.9897 90.9972 28.2725C90.9972 26.5175 91.1599 24.848 88.992 25.2215C88.4449 25.3158 88.1805 25.5211 88.1805 26.1368C88.1805 29.1756 88.4615 31.5743 86.8915 34.3745C85.8181 36.2884 84.0762 37.6207 82.6901 39.2561C79.9132 42.5322 76.7605 45.5716 73.81 48.7141C72.5743 50.0303 71.2572 51.2989 70.0862 52.6804C69.759 53.0663 69.4179 53.8578 68.9404 54.0534C68.0426 54.421 66.9002 52.6432 66.3623 52.0702C64.663 50.2604 62.3671 46.6794 60.0603 45.9682V45.9682ZM78.3933 62.7487H97.2991C100.887 62.7487 104.699 63.1691 108.184 62.1894C110.689 61.4856 113.031 59.9219 114.773 57.8671C115.48 57.0329 116.433 55.8165 115.346 54.867C114.484 54.115 113.713 54.7636 113.054 55.4263C111.236 57.2554 109.538 58.9307 107.039 59.5961C104.624 60.2389 102.066 60.0028 99.5908 60.0028H87.5597H83.263C82.6365 60.0028 81.7932 60.1663 81.3056 59.6467C80.6585 58.9575 80.9713 57.2404 80.9713 56.3416V47.4937L78.4887 49.9345L78.3933 53.9008V62.7487V62.7487ZM96.1533 58.7824C97.1129 58.7824 98.3897 59.0188 99.3043 58.6808C100.479 58.246 101.278 56.8926 102.169 56.0365C103.586 54.6742 105.215 53.1512 107.039 52.4769C112.358 50.5096 116.156 54.1537 119.642 57.8671L126.231 64.8844L131.673 70.6812C132.101 71.1367 133.575 72.2629 133.44 73.0204C133.376 73.381 132.757 73.8027 132.533 74.0373L129.955 76.7832L121.648 85.6311C120.475 86.8795 118.525 88.3168 117.78 89.9024C117.333 90.855 117.941 92.0461 118.21 92.9534C120.006 92.3997 120.958 90.3317 122.22 88.9872C123.499 87.6252 124.94 86.3963 126.231 85.0209L134.538 76.173C135.209 75.4582 137.302 73.9107 137.259 72.8169C137.222 71.8803 135.675 70.9689 135.111 70.3761C133.103 68.2673 130.985 66.1981 129.095 63.9691C127.005 61.502 124.713 59.301 122.507 56.9518C120.778 55.1099 119.074 52.7433 117.064 51.2565C113.412 48.5549 108.359 48.5192 104.46 50.5957C102.802 51.4786 101.459 52.8259 100.164 54.2059C98.9004 55.5514 96.8442 57.0653 96.1533 58.7824V58.7824ZM23.9673 52.3753C28.4271 51.0002 31.9565 53.2818 35.139 56.3416C38.4504 59.5256 41.424 63.0358 44.5919 66.4098L49.1751 71.2914C49.606 71.7503 50.5521 72.4343 50.6553 73.122C50.7744 73.9183 49.0674 75.0673 48.6022 75.5628C46.903 77.3726 43.5409 79.818 42.8732 82.275C43.8328 82.275 45.1095 82.5114 46.0242 82.1734C46.9511 81.8305 47.6449 80.8538 48.3158 80.1393L52.0397 76.173C52.6681 75.5036 54.8266 73.897 54.4745 72.8169C54.2508 72.1308 53.3674 71.4852 52.899 70.9863L48.8887 66.7149L40.0087 57.2569C38.0158 55.1343 36.1464 52.8085 33.7067 51.2565C31.385 49.7798 28.9244 49.3243 26.259 49.3243C24.0877 49.3243 22.508 49.8073 23.9673 52.3753V52.3753ZM18.5248 53.2906L4.48859 68.2404C3.44872 69.3479 2.43883 70.5088 1.33762 71.5456C0.851855 72.0032 -0.0305529 72.625 0.000814309 73.4271C0.0388967 74.4013 1.59124 75.5277 2.19697 76.173L8.21246 82.5801L16.2331 91.1228C17.7339 92.7213 19.1744 94.6214 21.1028 95.6484C24.9403 97.6922 29.1407 97.4741 32.8474 95.4452C34.3237 94.637 35.6683 93.5926 36.8577 92.3432C38.1576 90.9779 40.3581 89.338 40.868 87.4617C39.7082 87.4617 38.1596 87.1627 37.1441 87.8684C34.2097 89.9089 32.428 93.7723 28.5506 94.1738C26.3953 94.3969 23.7906 94.204 21.9622 92.8518C20.267 91.5979 18.8366 89.6242 17.3789 88.0719L9.35828 79.5291L5.34794 75.2577C4.91987 74.8019 3.96621 74.1124 3.86793 73.4271C3.6791 72.1106 6.34689 70.5915 7.06666 69.7659C10.3643 65.9833 14.0905 62.6083 17.3789 58.7824C18.7412 57.1974 20.8891 55.1374 18.5248 53.2906V53.2906ZM113.627 94.1738C111.992 94.1738 110.064 94.4728 108.471 94.0722C104.853 93.1621 102.419 90.4742 99.8772 87.7668L92.7159 80.1393L88.1327 75.2577C87.6531 74.747 86.5093 73.9168 86.5093 73.122C86.5093 72.1765 88.1246 70.9949 88.7056 70.3761C90.5575 68.4037 93.1333 66.3635 94.4346 63.9691C93.475 63.9691 92.1983 63.7326 91.2836 64.0707C90.3567 64.4136 89.6629 65.3902 88.992 66.1047L85.2681 70.071C84.5406 70.846 82.4285 72.1646 82.7379 73.4271C82.9144 74.1481 83.6376 74.4864 84.1223 74.9526C85.4194 76.1998 86.6104 77.6027 87.8462 78.9189L97.872 89.5973C99.4584 91.287 101.058 93.5673 103.028 94.7331C105.544 96.2216 107.88 96.9197 110.762 96.9197C111.475 96.9197 112.982 97.2114 113.484 96.513C113.851 96.0026 113.627 94.7843 113.627 94.1738V94.1738ZM56.3364 98.7503C60.1282 97.5812 58.9145 90.9895 58.9145 87.7668C58.9145 86.8643 59.3345 84.2261 58.5802 83.6479C58.1239 83.298 57.154 83.4954 56.6229 83.4954H51.1803H37.4306C34.7139 83.4954 31.7448 83.1897 29.1235 84.004C26.7909 84.7286 24.2153 86.1052 22.5828 88.0719C22.0101 88.762 21.0604 89.8265 21.5325 90.8177C21.7897 91.3578 22.4992 92.032 23.108 91.8346C24.0444 91.5311 24.8754 89.7484 25.6861 89.0888C27.3999 87.6945 29.316 86.7776 31.4151 86.3429C33.4048 85.931 35.6904 86.2413 37.7171 86.2413H50.0345H54.3313C54.8942 86.2413 55.5653 86.1317 56.0022 86.5973C56.6493 87.2865 56.3364 89.0036 56.3364 89.9024V98.7503ZM78.3933 83.4954V103.937C78.3933 107.51 77.9584 111.441 78.7751 114.921C79.4042 117.6 80.8301 120.314 82.7855 122.141C83.5809 122.884 84.8267 124.124 85.7457 122.853C86.1547 122.287 86.1939 121.588 85.7932 121.023C85.3613 120.412 84.6182 120.057 84.1224 119.497C82.8903 118.104 81.8754 116.131 81.3532 114.31C80.6655 111.913 80.9714 109.163 80.9714 106.683V93.2585V88.682C80.9714 88.0148 80.8178 87.1166 81.3057 86.5973C81.9528 85.9081 83.5649 86.2413 84.4088 86.2413H92.7159L90.4243 83.597L86.7004 83.4954H78.3933H78.3933ZM97.8721 83.4954C98.8131 86.9576 101.921 85.9783 104.46 86.2413C107.523 86.5583 110.656 87.5324 112.672 90.2076C115.246 93.6222 114.773 97.3542 114.773 101.496V121.938H97.0127L91.8565 122.09L90.7107 124.684H110.762H115.059C115.733 124.684 116.658 125.345 117.208 124.582C117.737 123.847 117.351 121.619 117.351 120.717V110.649V98.7503C117.351 96.6604 117.621 94.3432 116.969 92.3432C115.75 88.6049 112.383 85.1725 108.757 84.2072C105.196 83.2589 101.525 83.4954 97.872 83.4954H97.8721ZM77.2475 100.581C77.2475 99.3532 77.3615 97.7417 76.8178 96.6146C75.788 94.4802 73.1105 92.5135 71.5184 90.8177C70.8215 90.0754 69.2368 87.6185 68.081 88.2244C67.5115 88.5231 67.083 89.4198 66.6487 89.9024C65.2483 91.4588 63.7831 92.9547 62.352 94.4789C59.193 97.8436 55.9452 101.103 52.899 104.547C51.1219 106.557 49.1536 108.248 47.8383 110.649C46.6163 112.88 45.7526 116.354 46.2152 118.887C46.4624 120.242 46.3081 121.319 48.0293 121.023C48.8323 120.884 48.9508 120.292 48.8887 119.497C48.6718 116.724 49.1087 114.347 50.3688 111.87C51.516 109.614 53.5057 107.867 55.1906 106.073L63.7842 96.9197L66.9352 93.5636C67.3016 93.1734 67.8266 92.3536 68.3674 92.2416C69.2073 92.0677 70.4153 93.9142 70.9455 94.4789C72.6447 96.2888 74.9407 99.8697 77.2475 100.581V100.581ZM20.2435 96.6146C19.6025 98.973 19.957 101.785 19.957 104.242V118.277V123.463C19.957 123.995 19.8209 124.781 20.2912 125.141C20.9784 125.668 22.8571 125.294 23.6809 125.294H32.5609C36.4899 125.294 40.4203 125.391 44.3055 124.989C45.8188 124.832 47.3754 125.146 48.8887 124.989C52.2144 124.644 55.6412 121.622 57.148 118.582C58.2477 116.363 58.2875 114.259 58.7235 111.87C59.1022 109.795 59.3949 106.182 58.6281 104.242C55.952 105.892 56.5908 107.864 56.3364 110.649C56.0597 113.68 55.4571 116.42 53.663 118.887C51.1989 122.275 47.6443 122.243 44.019 122.243H30.5557H24.8267C24.2338 122.243 23.312 122.423 22.8693 121.887C22.486 121.423 22.7452 120.648 22.7738 120.107C22.8326 118.994 22.8215 117.876 22.8215 116.751V102.106C22.8215 99.5134 22.976 97.2272 20.2434 96.6146L20.2435 96.6146ZM82.1171 102.717C82.1171 103.739 81.8952 105.098 82.2125 106.073C82.6078 107.285 83.8694 108.244 84.6952 109.124C86.0476 110.564 87.4033 112.366 88.0373 114.31C89.6113 119.139 87.1238 122.668 84.2177 126.006C81.6966 128.902 79.0123 131.652 76.3881 134.447L70.9455 140.244C70.4018 140.823 69.5095 142.246 68.6539 142.074C67.3717 141.817 65.7897 139.108 64.93 138.108C62.2041 134.937 59.1915 131.996 56.3364 128.955C55.3058 127.857 53.628 125.388 52.0397 125.294C51.394 125.256 50.6363 125.702 50.0345 125.904C50.3828 127.186 51.4464 128.018 52.3261 128.955L57.4823 134.447L65.7894 143.295C66.4694 144.019 67.8544 146.167 68.9404 145.99C69.8902 145.835 70.8756 144.284 71.5184 143.6L77.2475 137.498L85.5546 128.65C86.9811 127.131 88.7474 125.655 89.756 123.768C91.656 120.215 91.5334 114.763 89.6603 111.259C88.831 109.708 87.8814 108.264 86.7004 106.988C85.4185 105.603 83.8788 103.26 82.1171 102.717V102.717Z" fill="white"/>
</g>
</svg>