<svg width="41" height="32" viewBox="0 0 41 32" fill="none" xmlns="http://www.w3.org/2000/svg">
<path d="M0.368209 29.9832C2.08652 28.0112 3.43662 26.1737 4.41851 24.4706C5.4004 22.7675 5.89135 21.3781 5.89135 20.3025C5.89135 19.6751 5.68679 19.0924 5.27766 18.5546C4.95037 18.0168 4.41851 17.4342 3.68209 16.8067C2.53655 15.8207 1.63649 14.7899 0.981892 13.7143C0.327298 12.6387 0 11.2045 0 9.41176C0 6.63305 0.777327 4.39215 2.33199 2.68907C3.88665 0.896359 5.85043 0 8.22334 0C10.7599 0 12.8055 0.896359 14.3602 2.68907C15.9966 4.39215 16.8149 6.63305 16.8149 9.41176C16.8149 12.9076 15.4648 16.7619 12.7646 20.9748C10.1462 25.098 6.62777 28.7731 2.20925 32L0.368209 29.9832ZM24.1791 29.9832C25.8974 28.0112 27.2475 26.1737 28.2294 24.4706C29.2113 22.7675 29.7022 21.3781 29.7022 20.3025C29.7022 19.6751 29.4977 19.0924 29.0885 18.5546C28.7612 18.0168 28.2294 17.4342 27.493 16.8067C26.3474 15.8207 25.4474 14.7899 24.7928 13.7143C24.1382 12.6387 23.8109 11.2045 23.8109 9.41176C23.8109 6.63305 24.5882 4.39215 26.1429 2.68907C27.6975 0.896359 29.6613 0 32.0342 0C34.5708 0 36.6164 0.896359 38.171 2.68907C39.8075 4.39215 40.6258 6.63305 40.6258 9.41176C40.6258 12.9076 39.2757 16.7619 36.5755 20.9748C33.9571 25.098 30.4386 28.7731 26.0201 32L24.1791 29.9832Z" fill="#BE6237"/>
</svg>