<svg width="147" height="21" viewBox="0 0 147 21" fill="none" xmlns="http://www.w3.org/2000/svg">
<path d="M12.4291 15.024H6.14113L5.13312 18H0.837125L6.93312 1.152H11.6851L17.7811 18H13.4371L12.4291 15.024ZM11.3731 11.856L9.28513 5.688L7.22112 11.856H11.3731ZM27.8684 4.464C29.4044 4.464 30.6364 4.976 31.5644 6C32.4924 7.008 32.9564 8.4 32.9564 10.176V18L28.8764 18V10.728C28.8764 9.832 28.6444 9.136 28.1804 8.64C27.7164 8.144 27.0924 7.896 26.3084 7.896C25.5244 7.896 24.9004 8.144 24.4364 8.64C23.9724 9.136 23.7404 9.832 23.7404 10.728V18H19.6364V0.239999H23.7404V6.408C24.1564 5.816 24.7244 5.344 25.4444 4.992C26.1644 4.64 26.9724 4.464 27.8684 4.464ZM39.9123 0.239999V18H35.8083V0.239999H39.9123ZM56.1104 4.608V18H52.0064V16.176C51.5904 16.768 51.0224 17.248 50.3024 17.616C49.5984 17.968 48.8144 18.144 47.9504 18.144C46.9264 18.144 46.0224 17.92 45.2384 17.472C44.4544 17.008 43.8464 16.344 43.4144 15.48C42.9824 14.616 42.7664 13.6 42.7664 12.432V4.608H46.8464V11.88C46.8464 12.776 47.0784 13.472 47.5424 13.968C48.0064 14.464 48.6304 14.712 49.4144 14.712C50.2144 14.712 50.8464 14.464 51.3104 13.968C51.7744 13.472 52.0064 12.776 52.0064 11.88V4.608H56.1104ZM63.1623 0.239999V18H59.0583V0.239999H63.1623ZM83.2224 20.88L81.0624 17.976C80.4224 18.104 79.7984 18.168 79.1904 18.168C77.6064 18.168 76.1504 17.8 74.8224 17.064C73.5104 16.328 72.4624 15.304 71.6784 13.992C70.9104 12.664 70.5264 11.176 70.5264 9.528C70.5264 7.88 70.9104 6.4 71.6784 5.088C72.4624 3.776 73.5104 2.752 74.8224 2.016C76.1504 1.28 77.6064 0.911999 79.1904 0.911999C80.7744 0.911999 82.2224 1.28 83.5344 2.016C84.8624 2.752 85.9024 3.776 86.6544 5.088C87.4224 6.4 87.8064 7.88 87.8064 9.528C87.8064 10.968 87.5104 12.288 86.9184 13.488C86.3424 14.672 85.5344 15.656 84.4944 16.44L88.1904 20.88H83.2224ZM74.7264 9.528C74.7264 11.016 75.1264 12.208 75.9264 13.104C76.7424 13.984 77.8304 14.424 79.1904 14.424C80.5344 14.424 81.6064 13.976 82.4064 13.08C83.2224 12.184 83.6304 11 83.6304 9.528C83.6304 8.04 83.2224 6.856 82.4064 5.976C81.6064 5.08 80.5344 4.632 79.1904 4.632C77.8304 4.632 76.7424 5.072 75.9264 5.952C75.1264 6.832 74.7264 8.024 74.7264 9.528ZM103.36 4.608V18H99.2564V16.176C98.8404 16.768 98.2724 17.248 97.5524 17.616C96.8484 17.968 96.0644 18.144 95.2004 18.144C94.1764 18.144 93.2724 17.92 92.4884 17.472C91.7044 17.008 91.0964 16.344 90.6644 15.48C90.2324 14.616 90.0164 13.6 90.0164 12.432V4.608H94.0964V11.88C94.0964 12.776 94.3284 13.472 94.7924 13.968C95.2564 14.464 95.8804 14.712 96.6644 14.712C97.4644 14.712 98.0964 14.464 98.5604 13.968C99.0244 13.472 99.2564 12.776 99.2564 11.88V4.608H103.36ZM110.412 6.84C110.892 6.104 111.492 5.528 112.212 5.112C112.932 4.68 113.732 4.464 114.612 4.464V8.808H113.484C112.46 8.808 111.692 9.032 111.18 9.48C110.668 9.912 110.412 10.68 110.412 11.784V18H106.308V4.608H110.412V6.84ZM115.758 11.28C115.758 9.904 116.014 8.696 116.526 7.656C117.054 6.616 117.766 5.816 118.662 5.256C119.558 4.696 120.558 4.416 121.662 4.416C122.606 4.416 123.43 4.608 124.134 4.992C124.854 5.376 125.406 5.88 125.79 6.504V4.608H129.894V18H125.79V16.104C125.39 16.728 124.83 17.232 124.11 17.616C123.406 18 122.582 18.192 121.638 18.192C120.55 18.192 119.558 17.912 118.662 17.352C117.766 16.776 117.054 15.968 116.526 14.928C116.014 13.872 115.758 12.656 115.758 11.28ZM125.79 11.304C125.79 10.28 125.502 9.472 124.926 8.88C124.366 8.288 123.678 7.992 122.862 7.992C122.046 7.992 121.35 8.288 120.774 8.88C120.214 9.456 119.934 10.256 119.934 11.28C119.934 12.304 120.214 13.12 120.774 13.728C121.35 14.32 122.046 14.616 122.862 14.616C123.678 14.616 124.366 14.32 124.926 13.728C125.502 13.136 125.79 12.328 125.79 11.304ZM141.023 4.464C142.591 4.464 143.839 4.976 144.767 6C145.711 7.008 146.183 8.4 146.183 10.176V18H142.103V10.728C142.103 9.832 141.871 9.136 141.407 8.64C140.943 8.144 140.319 7.896 139.535 7.896C138.751 7.896 138.127 8.144 137.663 8.64C137.199 9.136 136.967 9.832 136.967 10.728V18H132.863V4.608H136.967V6.384C137.383 5.792 137.943 5.328 138.647 4.992C139.351 4.64 140.143 4.464 141.023 4.464Z" fill="url(#paint0_linear_2_3113)"/>
<defs>
<stop stop-color="#D38545"/>
<stop offset="1" stop-color="#FFBF8A"/>
</linearGradient>
</defs>
</svg>